<svg width="20" height="20" viewBox="0 0 20 20" fill="none" xmlns="http://www.w3.org/2000/svg">
<path fill-rule="evenodd" clip-rule="evenodd" d="M13.8094 15.2235C10.6709 17.666 6.13206 17.4456 3.24701 14.5606C0.123034 11.4366 0.122775 6.37109 3.24701 3.24686C6.37124 0.122622 11.4367 0.122881 14.5607 3.24686C17.4458 6.13191 17.6661 10.6707 15.2236 13.8093L18.8034 17.389C18.9912 17.5768 19.0893 17.8212 19.0956 18.0662C19.1034 18.3319 19.0062 18.6004 18.8034 18.8032C18.4129 19.1937 17.78 19.194 17.3891 18.8032L13.8094 15.2235ZM13.1465 4.66107C15.4902 7.00474 15.4897 10.8032 13.1465 13.1464C10.8034 15.4895 7.0049 15.49 4.66122 13.1464C2.31755 10.8027 2.31807 7.00422 4.66122 4.66107C7.00438 2.31792 10.8028 2.3174 13.1465 4.66107Z" fill="white"/>
</svg>
